<svg xmlns="http://www.w3.org/2000/svg" viewBox="0 0 1024 1024" role="img" aria-label="Block Math app icon">
  <defs>
    <filter id="softShadow" x="-20%" y="-20%" width="140%" height="150%">
      <feDropShadow dx="0" dy="18" stdDeviation="16" flood-color="#57463f" flood-opacity="0.18"/>
      <feDropShadow dx="0" dy="8" stdDeviation="0" flood-color="#57463f" flood-opacity="0.12"/>
    </filter>
    <filter id="tileShadow" x="-20%" y="-20%" width="140%" height="150%">
      <feDropShadow dx="0" dy="14" stdDeviation="0" flood-color="#57463f" flood-opacity="0.14"/>
      <feDropShadow dx="0" dy="22" stdDeviation="18" flood-color="#57463f" flood-opacity="0.18"/>
    </filter>
  </defs>

  <rect width="1024" height="1024" rx="224" fill="#fff5d8"/>
  <path d="M0 594c152-88 308-96 468-24 206 94 372 78 556-48v502H0Z" fill="#dbefff" opacity="0.78"/>
  <path d="M0 446c166 68 332 70 498 8 206-76 372-58 526 54v192c-154-112-320-130-526-54-166 62-332 60-498-8Z" fill="#e7f7f2" opacity="0.82"/>
  <circle cx="198" cy="174" r="54" fill="#fffdf6" opacity="0.78"/>
  <circle cx="830" cy="190" r="38" fill="#fffdf6" opacity="0.62"/>
  <circle cx="846" cy="804" r="70" fill="#fffdf6" opacity="0.52"/>
  <circle cx="162" cy="788" r="42" fill="#fffdf6" opacity="0.48"/>

  <g filter="url(#softShadow)">
    <rect x="266" y="144" width="164" height="164" rx="42" fill="#f94f59"/>
    <rect x="430" y="144" width="164" height="164" rx="0" fill="#ff9d32"/>
    <rect x="594" y="144" width="164" height="164" rx="42" fill="#ffe13d"/>
    <rect x="266" y="308" width="164" height="164" rx="0" fill="#5fce67"/>
    <rect x="430" y="308" width="164" height="164" rx="0" fill="#42bde8"/>
    <rect x="594" y="308" width="164" height="164" rx="0" fill="#9252d8"/>
    <path d="M308 144h408c23.2 0 42 18.8 42 42v244c0 23.2-18.8 42-42 42H308c-23.2 0-42-18.8-42-42V186c0-23.2 18.8-42 42-42Z" fill="none" stroke="#57463f" stroke-opacity="0.2" stroke-width="12"/>
    <path d="M430 144v328M594 144v328M266 308h492" fill="none" stroke="#fffdf6" stroke-opacity="0.58" stroke-width="10"/>
    <path d="M292 174h114M456 174h114M620 174h114M292 338h114M456 338h114M620 338h114" stroke="#fffdf6" stroke-opacity="0.35" stroke-width="14" stroke-linecap="round"/>
  </g>

  <g>
    <ellipse cx="512" cy="260" rx="164" ry="78" fill="#fffdf6" opacity="0.82"/>
    <circle cx="458" cy="246" r="17" fill="#3f302b"/>
    <circle cx="566" cy="246" r="17" fill="#3f302b"/>
    <circle cx="452" cy="240" r="6" fill="#fff"/>
    <circle cx="560" cy="240" r="6" fill="#fff"/>
    <path d="M477 284c18 28 52 28 70 0" fill="none" stroke="#3f302b" stroke-width="12" stroke-linecap="round"/>
    <circle cx="412" cy="284" r="16" fill="#ff8092" opacity="0.85"/>
    <circle cx="612" cy="284" r="16" fill="#ff8092" opacity="0.85"/>
  </g>

  <g filter="url(#tileShadow)">
    <rect x="142" y="610" width="220" height="220" rx="54" fill="#f94f59"/>
    <path d="M142 776c0 29.8 24.2 54 54 54h112c29.8 0 54-24.2 54-54v-10c0 29.8-24.2 54-54 54H196c-29.8 0-54-24.2-54-54Z" fill="#d43f49" opacity="0.78"/>
    <rect x="402" y="610" width="220" height="220" rx="54" fill="#ff9d32"/>
    <path d="M402 776c0 29.8 24.2 54 54 54h112c29.8 0 54-24.2 54-54v-10c0 29.8-24.2 54-54 54H456c-29.8 0-54-24.2-54-54Z" fill="#d7781f" opacity="0.78"/>
    <rect x="662" y="610" width="220" height="220" rx="54" fill="#ffe13d"/>
    <path d="M662 776c0 29.8 24.2 54 54 54h112c29.8 0 54-24.2 54-54v-10c0 29.8-24.2 54-54 54H716c-29.8 0-54-24.2-54-54Z" fill="#d3b72f" opacity="0.78"/>
  </g>

  <g fill="none" stroke-linecap="round" stroke-linejoin="round">
    <path d="M224 672l32-30v142" stroke="#57463f" stroke-opacity="0.18" stroke-width="58"/>
    <path d="M224 672l32-30v142" stroke="#fffdf6" stroke-opacity="1" stroke-width="44"/>
    <path d="M462 665c22-33 92-34 108 4 14 33-21 57-61 88l-42 32h108" stroke="#57463f" stroke-opacity="0.18" stroke-width="58"/>
    <path d="M462 665c22-33 92-34 108 4 14 33-21 57-61 88l-42 32h108" stroke="#fffdf6" stroke-opacity="1" stroke-width="44"/>
    <path d="M722 650h100l-58 58c69-3 75 82 0 82-28 0-50-9-64-27" stroke="#57463f" stroke-opacity="0.18" stroke-width="58"/>
    <path d="M722 650h100l-58 58c69-3 75 82 0 82-28 0-50-9-64-27" stroke="#fffdf6" stroke-opacity="1" stroke-width="44"/>
  </g>
</svg>
